<svg 
 xmlns="http://www.w3.org/2000/svg"
 xmlns:xlink="http://www.w3.org/1999/xlink"
 width="812px" height="630px">
<defs>
<linearGradient id="PSgrad_0" x1="0%" x2="22.495%" y1="97.437%" y2="0%">
  <stop offset="0%" stop-color="rgb(255,143,90)" stop-opacity="1" />
  <stop offset="99%" stop-color="rgb(255,47,150)" stop-opacity="1" />
</linearGradient>

</defs>
<path fill-rule="evenodd"  fill="rgb(96, 85, 196)"
 d="M393.520,40.407 C500.261,-10.049 600.994,-10.204 685.212,27.671 C769.647,65.238 837.568,140.836 883.703,234.785 C927.973,329.669 927.926,431.584 891.771,514.027 C855.115,597.700 794.105,660.782 710.966,705.804 C666.936,728.473 620.654,744.002 561.818,753.535 C503.757,762.929 433.142,766.325 358.325,761.479 C209.851,752.158 43.449,708.398 8.358,609.690 C-11.529,560.677 0.954,504.492 25.679,447.950 C50.809,391.326 88.181,334.346 127.419,281.835 C167.063,229.242 208.573,181.118 251.309,140.306 C294.450,99.410 338.817,65.827 393.520,40.407 L393.520,40.407 Z"/>
<path fill="url(#PSgrad_0)"
 d="M393.520,40.407 C500.261,-10.049 600.994,-10.204 685.212,27.671 C769.647,65.238 837.568,140.836 883.703,234.785 C927.973,329.669 927.926,431.584 891.771,514.027 C855.115,597.700 794.105,660.782 710.966,705.804 C666.936,728.473 620.654,744.002 561.818,753.535 C503.757,762.929 433.142,766.325 358.325,761.479 C209.851,752.158 43.449,708.398 8.358,609.690 C-11.529,560.677 0.954,504.492 25.679,447.950 C50.809,391.326 88.181,334.346 127.419,281.835 C167.063,229.242 208.573,181.118 251.309,140.306 C294.450,99.410 338.817,65.827 393.520,40.407 L393.520,40.407 Z"/>
</svg>